<?xml version="1.0" encoding="utf-8"?>
<!-- Generator: Adobe Illustrator 23.0.1, SVG Export Plug-In . SVG Version: 6.00 Build 0)  -->
<svg version="1.1" id="Layer_1" xmlns="http://www.w3.org/2000/svg" xmlns:xlink="http://www.w3.org/1999/xlink" x="0px" y="0px"
	 viewBox="0 0 509 480.5" style="enable-background:new 0 0 509 480.5;" xml:space="preserve">
<style type="text/css">
	.st0{clip-path:url(#SVGID_2_);}
	.st1{fill:#0E8E7F;}
	.st2{fill:#0BAA99;}
	.st3{fill:#005948;}
	.st4{fill:#E07E93;}
	.st5{fill:#1D3133;}
	.st6{fill:#2D4448;}
	.st7{fill:#C66F63;}
	.st8{fill:#D18072;}
	.st9{fill:#A34134;}
	.st10{fill:#232323;}
	.st11{fill:#FFD1DA;}
	.st12{fill:#262728;}
	.st13{fill:#969696;}
	.st14{fill:#FF3333;}
	.st15{enable-background:new    ;}
</style>
<title>Header</title>
<g id="OBJECTS">
	<g>
		<g>
			<defs>
				<rect id="SVGID_1_" x="32.9" y="-19.5" width="435.5" height="500"/>
			</defs>
			<clipPath id="SVGID_2_">
				<use xlink:href="#SVGID_1_"  style="overflow:visible;"/>
			</clipPath>
			<g class="st0">
				<g>
					<path class="st1" d="M392.5,442.8c1.1-42.8-38-38.4-8.3-65s13.6-51.9-1.1-63.9c-14.5-11.8,49.8-61.8,2.6-87.2l0.1-0.4
						c-0.4,0-0.7-0.1-1-0.1l-0.9-0.5l-0.1,0.4c-53.3-5-27.5,72.2-46.1,74c-18.9,1.8-46.3,14-36.4,52.6s-20.2,13.3-43,49.5
						s20.4,64.3,20.4,64.3l26.6,19.2l-0.2,0.7h1.1l0.9,0.6l0.2-0.7l32.7-1.2C339.8,485.1,391.4,485.5,392.5,442.8z"/>
				</g>
				<g>
					<path class="st2" d="M392.5,442.8c1.1-42.8-38-38.4-8.3-65s13.6-51.9-1.1-63.9c-14.5-11.8,49.8-61.8,2.6-87.2l0.1-0.4
						c-0.4,0-0.7-0.1-1-0.1l-0.9-0.5l-0.1,0.4h-0.1l-76.9,260.7l0.2,0.1l0.2-0.7l32.7-1.2C339.8,485,391.4,485.5,392.5,442.8z"/>
				</g>
				<g>
					<polygon class="st3" points="378.1,244.4 367.8,279.9 357.5,315.3 337.1,386.1 316.8,457 306.6,492.5 296.6,528 290.7,526.2 
						301.8,491 312.8,455.8 334.7,385.4 356.5,315 367.3,279.7 					"/>
				</g>
				<g>
					<path class="st3" d="M319.7,327c2,3,3.9,6.2,5.9,9.2s3.9,6.2,5.7,9.3s3.8,6.3,5.6,9.4s3.7,6.3,5.5,9.4l-1.4-0.4l10.3-6.3
						l10.4-6.2c3.4-2,6.9-4,10.4-6s7-4,10.5-5.9c-3.3,2.3-6.7,4.5-10,6.8s-6.7,4.4-10.1,6.6l-10.2,6.5l-10.3,6.4l-0.9,0.6l-0.5-0.9
						c-1.8-3.2-3.6-6.3-5.4-9.5s-3.6-6.4-5.3-9.6s-3.5-6.4-5.2-9.6S321.4,330.3,319.7,327z"/>
				</g>
				<g>
					<path class="st3" d="M359.4,256.1c0.7,2.4,1.4,4.8,2,7.2s1.3,4.8,1.9,7.2c1.2,4.8,2.3,9.6,3.4,14.5l-1.1-0.4
						c3.2-2.5,6.3-4.9,9.6-7.3c1.6-1.2,3.2-2.4,4.8-3.6s3.3-2.4,4.9-3.5c-1.5,1.4-3,2.6-4.5,4s-3.1,2.6-4.6,3.9
						c-3.1,2.6-6.2,5.1-9.3,7.6l-0.8,0.7l-0.3-1c-1.1-4.8-2.2-9.7-3.2-14.5c-0.5-2.4-1-4.9-1.5-7.3
						C360.2,261,359.8,258.5,359.4,256.1z"/>
				</g>
				<g>
					<path class="st3" d="M279.1,404.2c3,4.7,5.8,9.4,8.8,14.1c2.9,4.7,5.7,9.5,8.6,14.2c5.7,9.5,11.3,19.1,16.8,28.6l-1.4-0.4
						c9.6-5.7,19.3-11.4,29-16.9c4.8-2.8,9.7-5.6,14.6-8.3c4.9-2.7,9.8-5.5,14.7-8.1c-4.7,3.1-9.5,6-14.2,9s-9.5,5.9-14.3,8.8
						c-9.5,5.8-19.1,11.6-28.8,17.3L312,463l-0.5-0.9c-5.5-9.6-11-19.2-16.4-28.9c-2.7-4.8-5.4-9.7-8.1-14.5
						C284.4,413.9,281.7,409.1,279.1,404.2z"/>
				</g>
				<g>
					<path class="st3" d="M303.5,418.6c-0.2,0-0.4-0.2-0.5-0.4c-14-94.8-1-157.1,12.5-192.8c14.6-38.6,32.7-55.1,32.9-55.2
						c0.2-0.2,0.5-0.2,0.7,0c0.2,0.2,0.2,0.5,0,0.7c-0.2,0.2-18.2,16.5-32.7,55C303,261.3,290,323.5,304,418
						C304,418.3,303.8,418.5,303.5,418.6C303.5,418.6,303.5,418.6,303.5,418.6z"/>
				</g>
				<g>
					<path class="st3" d="M359,175.3c-3.6,0-7.1-1.3-10.5-4c-15.7-12.2-2.5-31.1-2.4-31.3c0.2-0.2,0.4-0.3,0.6-0.1
						c0.2,0.1,0.3,0.4,0.1,0.6c-0.5,0.7-12.8,18.4,2.2,30.1c4,3.1,8.1,4.3,12.3,3.6c8.7-1.5,14.8-11.2,14.9-11.3
						c0.1-0.2,0.4-0.3,0.6-0.1c0.2,0.1,0.3,0.4,0.1,0.6c-0.3,0.4-6.4,10.1-15.5,11.7C360.7,175.2,359.9,175.3,359,175.3z"/>
				</g>
				<g>
					<path class="st3" d="M348.8,171.4C348.8,171.4,348.8,171.4,348.8,171.4c-0.2,0-0.4-0.1-0.4-0.3c-5-14.5,4.7-26.3,4.8-26.5
						c0.2-0.2,0.5-0.2,0.7-0.1c0.2,0.2,0.2,0.5,0.1,0.7c-0.1,0.1-9.1,11.1-4.9,24.7l12.7-18.2c0.1-0.2,0.4-0.3,0.6-0.1
						c0.2,0.1,0.3,0.4,0.1,0.6l-13.2,19C349.1,171.3,349,171.4,348.8,171.4z"/>
				</g>
				<g>
					<path class="st3" d="M351.7,171.5c-0.9,0-1.8-0.1-2.8-0.2c-0.3,0-0.4-0.3-0.4-0.5c0-0.3,0.3-0.4,0.5-0.4
						c15.7,1.8,21-12.3,21.2-12.9c0.1-0.2,0.4-0.4,0.6-0.3c0.2,0.1,0.4,0.4,0.3,0.6C371,158,366,171.5,351.7,171.5z"/>
				</g>
				<g>
					<path class="st4" d="M343.9,140c0,1.8,1.5,3.3,3.3,3.3s3.3-1.5,3.3-3.3s-1.5-3.3-3.3-3.3l0,0
						C345.4,136.6,343.9,138.1,343.9,140z"/>
				</g>
				<g>
					<path class="st4" d="M352.1,142.9c0,1.8,1.5,3.3,3.3,3.3s3.3-1.5,3.3-3.3s-1.5-3.3-3.3-3.3l0,0
						C353.6,139.5,352.2,141,352.1,142.9z"/>
				</g>
				<g>
					<path class="st4" d="M374.8,162c0,1.8,1.5,3.3,3.3,3.3s3.3-1.5,3.3-3.3s-1.5-3.3-3.3-3.3l0,0
						C376.3,158.6,374.8,160.1,374.8,162z"/>
				</g>
				<g>
					<path class="st4" d="M368.6,155.7c0,1.8,1.5,3.3,3.3,3.3s3.3-1.5,3.3-3.3s-1.5-3.3-3.3-3.3l0,0
						C370.1,152.4,368.6,153.9,368.6,155.7z"/>
				</g>
				<g>
					<path class="st4" d="M359.7,151.7c0,1.8,1.5,3.3,3.3,3.3s3.3-1.5,3.3-3.3s-1.5-3.3-3.3-3.3l0,0
						C361.2,148.4,359.7,149.9,359.7,151.7z"/>
				</g>
				<g>
					<path class="st3" d="M160.9,435C160.9,435,160.9,435,160.9,435c-0.3,0-0.5-0.2-0.5-0.5c4.2-95.5-15.2-156.1-32.1-190
						c-18.3-36.8-37.9-51.1-38.1-51.3c-0.2-0.1-0.3-0.4-0.1-0.6s0.4-0.3,0.6-0.1c0.2,0.1,19.9,14.6,38.4,51.6
						c17,34.1,36.4,94.8,32.2,190.5C161.4,434.8,161.1,435,160.9,435z"/>
				</g>
				<g>
					<path class="st3" d="M79.1,198.5c-0.4,0-0.7,0-1.1,0c-9.3-0.7-16.4-9.6-16.7-10c-0.2-0.2-0.1-0.5,0.1-0.7
						c0.2-0.2,0.5-0.1,0.7,0.1c0.1,0.1,7.1,9,16,9.6c4.2,0.3,8.2-1.3,11.9-4.8c13.7-13-0.2-29.4-0.8-30.1c-0.2-0.2-0.1-0.5,0-0.7
						c0.2-0.2,0.5-0.1,0.7,0c0.2,0.2,15.1,17.7,0.8,31.3C87.1,196.8,83.2,198.5,79.1,198.5z"/>
				</g>
				<g>
					<path class="st3" d="M90.4,193.7c-0.1,0-0.3-0.1-0.4-0.2l-15.1-17.6c-0.2-0.2-0.1-0.5,0.1-0.7c0.2-0.2,0.5-0.1,0.7,0.1
						l14.5,16.9c2.8-13.9-7.3-24-7.4-24.1c-0.2-0.2-0.2-0.5,0-0.7c0.2-0.2,0.5-0.2,0.7,0c0.1,0.1,10.9,11,7.4,25.8
						c0,0.2-0.2,0.3-0.3,0.3C90.5,193.7,90.4,193.7,90.4,193.7z"/>
				</g>
				<g>
					<path class="st3" d="M85.5,194.2c-12.7,0-18.4-11.6-18.5-11.7c-0.1-0.2,0-0.5,0.2-0.6c0.2-0.1,0.5,0,0.6,0.2
						c0.3,0.6,7,14.1,22.5,10.6c0.3-0.1,0.5,0.1,0.6,0.4c0.1,0.3-0.1,0.5-0.4,0.6C88.7,194.1,87,194.2,85.5,194.2z"/>
				</g>
				<g>
					<path class="st4" d="M92.1,161.9c0.2,1.8-1.2,3.5-3,3.6c-1.8,0.2-3.5-1.2-3.6-3c-0.2-1.8,1.2-3.4,3-3.6
						C90.3,158.7,91.9,160,92.1,161.9L92.1,161.9z"/>
				</g>
				<g>
					<path class="st4" d="M84.2,165.6c0.2,1.8-1.2,3.5-3,3.6c-1.8,0.2-3.5-1.2-3.6-3c-0.2-1.8,1.2-3.4,3-3.6S84,163.8,84.2,165.6
						L84.2,165.6z"/>
				</g>
				<g>
					<circle class="st4" cx="60.3" cy="187.3" r="3.3"/>
				</g>
				<g>
					<path class="st4" d="M69.2,180.1c0.2,1.8-1.2,3.5-3,3.6s-3.5-1.2-3.6-3c-0.2-1.8,1.2-3.5,3-3.6C67.4,176.9,69,178.3,69.2,180.1
						z"/>
				</g>
				<g>
					<path class="st4" d="M77.6,175.2c0.2,1.8-1.2,3.5-3,3.6c-1.8,0.2-3.5-1.2-3.6-3c-0.2-1.8,1.2-3.4,3-3.6
						C75.8,172,77.4,173.4,77.6,175.2L77.6,175.2z"/>
				</g>
				<g>
					<path class="st3" d="M169.1,348.7c0,0-0.1,0-0.1,0c-0.2-0.1-0.4-0.3-0.3-0.6c22.5-92.8,15.3-155.9,5.2-192.5
						C163,115.9,146.5,98,146.4,97.8c-0.2-0.2-0.2-0.5,0-0.7c0.2-0.2,0.5-0.2,0.7,0c0.2,0.2,16.7,18.2,27.7,58
						c10.1,36.7,17.4,100-5.2,193.1C169.5,348.5,169.3,348.7,169.1,348.7z"/>
				</g>
				<g>
					<path class="st3" d="M137.3,101.2c-1.3,0-2.6-0.2-3.9-0.5c-9-2.5-14.2-12.6-14.4-13c-0.1-0.2,0-0.5,0.2-0.6
						c0.2-0.1,0.5,0,0.6,0.2c0.1,0.1,5.3,10.2,13.9,12.5c4.1,1.1,8.3,0.3,12.6-2.4c15.9-10.1,5.1-29.5,4.9-29.7
						c-0.1-0.2-0.1-0.5,0.2-0.6c0.2-0.1,0.5-0.1,0.6,0.2c0.1,0.2,11.4,20.3-5.3,30.9C143.6,100.2,140.4,101.2,137.3,101.2z"/>
				</g>
				<g>
					<path class="st3" d="M146.5,98.3c-0.2,0-0.3-0.1-0.4-0.2l-11.4-20.1c-0.1-0.2,0-0.5,0.2-0.6c0.2-0.1,0.5,0,0.6,0.2l10.9,19.3
						c5.4-13.1-2.5-24.9-2.6-25c-0.1-0.2-0.1-0.5,0.1-0.6c0.2-0.1,0.5-0.1,0.6,0.1c0.1,0.1,8.7,12.9,2.3,26.8
						C146.9,98.2,146.7,98.3,146.5,98.3C146.5,98.3,146.5,98.3,146.5,98.3z"/>
				</g>
				<g>
					<path class="st3" d="M145.7,98.3c-15.9,0-20-15.3-20.1-15.5c-0.1-0.2,0.1-0.5,0.3-0.6c0.2-0.1,0.5,0.1,0.6,0.3
						c0.2,0.6,4.1,15.2,19.9,14.8c0.3,0,0.5,0.2,0.5,0.5s-0.2,0.5-0.5,0.5C146.3,98.3,146,98.3,145.7,98.3z"/>
				</g>
				<g>
					<path class="st4" d="M154.2,67.5c-0.2,1.8-1.8,3.2-3.6,3s-3.2-1.8-3-3.6s1.8-3.2,3.6-3l0,0C153.1,64,154.4,65.7,154.2,67.5
						L154.2,67.5z"/>
				</g>
				<g>
					<path class="st4" d="M145.8,69.6c-0.2,1.8-1.8,3.2-3.6,3s-3.2-1.8-3-3.6c0.2-1.8,1.8-3.2,3.6-3l0,0
						C144.6,66.2,146,67.8,145.8,69.6z"/>
				</g>
				<g>
					<circle class="st4" cx="118.1" cy="86.3" r="3.3"/>
				</g>
				<g>
					<path class="st4" d="M128.2,81c-0.2,1.8-1.8,3.2-3.6,3s-3.2-1.8-3-3.6s1.8-3.2,3.6-3l0,0C127.1,77.5,128.4,79.1,128.2,81z"/>
				</g>
				<g>
					<circle class="st4" cx="134.1" cy="77.5" r="3.3"/>
				</g>
				<g>
					<path class="st3" d="M198,675.2c-0.2,0-0.4-0.2-0.5-0.4c-5.5-95.4-30.9-153.6-51.1-185.7c-22-34.7-42.9-47.1-43.1-47.2
						c-0.2-0.1-0.3-0.4-0.2-0.6c0.1-0.2,0.4-0.3,0.6-0.2c0.2,0.1,21.3,12.6,43.4,47.5c20.4,32.2,45.8,90.6,51.3,186.2
						C198.5,674.9,198.3,675.1,198,675.2C198,675.2,198,675.2,198,675.2z"/>
				</g>
				<g>
					<path class="st3" d="M91.2,448.4c-9.1,0-16.7-7.9-17.1-8.2c-0.2-0.2-0.2-0.5,0-0.7c0.2-0.2,0.5-0.2,0.7,0
						c0.1,0.1,7.7,7.9,16.4,7.9c0.1,0,0.3,0,0.4,0c4.3-0.1,8.1-2.1,11.4-6c12.4-14.4-3.7-29.7-3.9-29.9c-0.2-0.2-0.2-0.5,0-0.7
						c0.2-0.2,0.5-0.2,0.7,0c0.2,0.2,16.9,16.1,3.9,31.1c-3.5,4.1-7.6,6.2-12.1,6.3C91.5,448.4,91.4,448.4,91.2,448.4z"/>
				</g>
				<g>
					<path class="st3" d="M103.4,442.3c-0.1,0-0.2,0-0.3-0.1l-16.8-15.9c-0.2-0.2-0.2-0.5,0-0.7c0.2-0.2,0.5-0.2,0.7,0l16.1,15.3
						c1.5-14.1-9.6-23.1-9.7-23.2c-0.2-0.2-0.2-0.5-0.1-0.7c0.2-0.2,0.5-0.2,0.7-0.1c0.1,0.1,12.1,9.7,10,24.9
						c0,0.2-0.1,0.3-0.3,0.4C103.5,442.3,103.5,442.3,103.4,442.3z"/>
				</g>
				<g>
					<path class="st3" d="M96.6,443.4c-11.3,0-17.5-9.8-17.5-9.9c-0.1-0.2-0.1-0.5,0.2-0.6c0.2-0.1,0.5-0.1,0.6,0.2
						c0.3,0.5,8.4,13.3,23.5,8.3c0.2-0.1,0.5,0.1,0.6,0.3c0.1,0.2-0.1,0.5-0.3,0.6C101.1,443.1,98.8,443.4,96.6,443.4z"/>
				</g>
				<g>
					<path class="st4" d="M102,410.5c0.4,1.8-0.8,3.6-2.6,3.9c-1.8,0.4-3.6-0.8-3.9-2.6c-0.4-1.8,0.8-3.6,2.6-3.9
						C99.9,407.5,101.7,408.7,102,410.5L102,410.5z"/>
				</g>
				<g>
					<path class="st4" d="M94.6,415c0.4,1.8-0.8,3.6-2.6,3.9s-3.6-0.8-3.9-2.6c-0.4-1.8,0.8-3.6,2.6-3.9
						C92.4,412.1,94.2,413.2,94.6,415L94.6,415z"/>
				</g>
				<g>
					<path class="st4" d="M76.3,438.3c0.4,1.8-0.8,3.6-2.6,3.9s-3.6-0.8-3.9-2.6c-0.4-1.8,0.8-3.6,2.6-3.9
						C74.1,435.4,75.9,436.5,76.3,438.3z"/>
				</g>
				<g>
					<path class="st4" d="M81.1,431c0.4,1.8-0.8,3.6-2.6,3.9s-3.6-0.8-3.9-2.6c-0.4-1.8,0.8-3.6,2.6-3.9
						C78.9,428,80.7,429.2,81.1,431z"/>
				</g>
				<g>
					<path class="st4" d="M89,425.3c0.4,1.8-0.8,3.6-2.6,3.9s-3.6-0.8-3.9-2.6c-0.4-1.8,0.8-3.6,2.6-3.9
						C86.8,422.3,88.6,423.5,89,425.3L89,425.3z"/>
				</g>
				<g>
					<path class="st3" d="M319.9,653.4c-0.3,0-0.5-0.2-0.5-0.5c-0.2-95.8,21.7-155.6,40.1-188.9c20-36.2,40.3-49.8,40.5-50
						c0.2-0.1,0.5-0.1,0.6,0.1c0.1,0.2,0.1,0.5-0.1,0.6c-0.2,0.1-20.4,13.7-40.2,49.7c-18.3,33.2-40.2,92.9-40,188.4
						C320.4,653.2,320.2,653.4,319.9,653.4L319.9,653.4z"/>
				</g>
				<g>
					<path class="st3" d="M412,420.7c-4.4,0-8.4-1.9-12-5.6c-13.7-14.4,1.9-31.2,2.1-31.3c0.2-0.2,0.5-0.2,0.7,0
						c0.2,0.2,0.2,0.5,0,0.7c-0.6,0.7-15.2,16.3-2.1,30.1c3.5,3.7,7.5,5.5,11.7,5.3c8.9-0.3,16.3-8.8,16.4-8.9
						c0.2-0.2,0.5-0.2,0.7-0.1c0.2,0.2,0.2,0.5,0.1,0.7c-0.3,0.4-7.8,9-17.1,9.3C412.3,420.7,412.2,420.7,412,420.7z"/>
				</g>
				<g>
					<path class="st3" d="M400.4,415.1c0,0-0.1,0-0.1,0c-0.2,0-0.3-0.2-0.3-0.4c-2.9-15,8.4-25.3,8.5-25.4c0.2-0.2,0.5-0.2,0.7,0
						c0.2,0.2,0.2,0.5,0,0.7c-0.1,0.1-10.6,9.7-8.4,23.7l15.2-16.2c0.2-0.2,0.5-0.2,0.7,0s0.2,0.5,0,0.7l-15.8,16.9
						C400.7,415,400.5,415.1,400.4,415.1z"/>
				</g>
				<g>
					<path class="st3" d="M406.2,416c-1.8,0-3.8-0.2-5.9-0.8c-0.2-0.1-0.4-0.3-0.3-0.6c0.1-0.2,0.3-0.4,0.6-0.3
						c15.3,4.2,22.8-9.5,22.9-9.7c0.1-0.2,0.4-0.3,0.6-0.2c0.2,0.1,0.3,0.4,0.2,0.6C424.1,405.1,418.2,416,406.2,416z"/>
				</g>
				<g>
					<path class="st4" d="M400,383.4c-0.3,1.8,1,3.5,2.8,3.8s3.5-1,3.8-2.8s-1-3.5-2.8-3.8C401.9,380.3,400.2,381.6,400,383.4z"/>
				</g>
				<g>
					<path class="st4" d="M407.7,387.4c-0.3,1.8,1,3.5,2.8,3.8s3.5-1,3.8-2.8s-1-3.5-2.8-3.8C409.7,384.4,408,385.6,407.7,387.4
						L407.7,387.4z"/>
				</g>
				<g>
					<path class="st4" d="M427.4,409.6c-0.3,1.8,1,3.5,2.8,3.8s3.5-1,3.8-2.8s-1-3.5-2.8-3.8C429.3,406.5,427.6,407.8,427.4,409.6
						L427.4,409.6z"/>
				</g>
				<g>
					<path class="st4" d="M422.1,402.6c-0.3,1.8,1,3.5,2.8,3.8s3.5-1,3.8-2.8s-1-3.5-2.8-3.8C424.1,399.5,422.4,400.7,422.1,402.6z"
						/>
				</g>
				<g>
					<path class="st4" d="M413.9,397.3c-0.3,1.8,1,3.5,2.8,3.8s3.5-1,3.8-2.8s-1-3.5-2.8-3.8S414.2,395.5,413.9,397.3z"/>
				</g>
				<g>
					<path class="st1" d="M263.2,295.1c-25.8-38.2-57.4-9.9-48.1-51.8s-20.6-54.1-41-55.4c-20.1-1.3,4.9-85.4-52.3-78.1l-0.1-0.4
						l-1,0.6l-1.1,0.1l0.1,0.4c-49.9,28.9,21.1,80.6,5.9,93.8c-15.4,13.4-31.8,41.3,1,68.9s-9.4,24.3-6.7,70.4s58.2,43.7,58.2,43.7
						l35.3,0.2l0.2,0.7l0.9-0.7h1.2l-0.2-0.7l27.9-21.6C243.5,365.2,289,333.4,263.2,295.1z"/>
				</g>
				<g>
					<path class="st2" d="M263.2,295.1c-25.8-38.2-57.4-9.9-48.1-51.8s-20.6-54.1-41-55.4c-20.1-1.3,4.9-85.4-52.3-78.1l-0.1-0.4
						l-1,0.6l-1.1,0.1l0.1,0.4l-0.1,0.1l95.9,277h0.2l-0.2-0.7l27.9-21.6C243.4,365.3,289,333.4,263.2,295.1z"/>
				</g>
				<g>
					<polygon class="st3" points="126.3,130.1 139.4,167.7 152.6,205.2 179,280.2 205.7,355.1 219,392.5 232.4,430 226.1,432.1 
						213.8,394.3 201.4,356.6 176.5,281 151.5,205.6 138.9,167.8 					"/>
				</g>
				<g>
					<path class="st3" d="M126.8,239.1c3.7,1.4,7.3,2.9,11,4.4s7.3,3,10.9,4.6s7.2,3.1,10.8,4.7c3.6,1.6,7.2,3.2,10.8,4.8l-1.5,0.6
						c1.7-4,3.4-8,5.1-12l5.2-11.9c1.8-4,3.5-7.9,5.4-11.9c1.9-3.9,3.6-7.9,5.6-11.8c-1.4,4.1-3,8.1-4.5,12.2s-3.1,8.1-4.7,12.1
						l-4.9,12c-1.7,4-3.3,8-5,12l-0.4,1l-1-0.5c-3.6-1.6-7.2-3.3-10.7-4.9s-7.1-3.3-10.7-5c-3.5-1.7-7.1-3.4-10.6-5.2
						C133.8,242.7,130.3,241,126.8,239.1z"/>
				</g>
				<g>
					<path class="st3" d="M117.1,152.1c2.1,1.6,4.2,3.3,6.3,5s4.1,3.4,6.1,5.2c2,1.7,4.1,3.5,6.1,5.2c2,1.8,4,3.5,6,5.3l-1.2,0.3
						c1.2-4.1,2.5-8.3,3.8-12.4c0.7-2.1,1.3-4.1,2-6.2s1.4-4.1,2.1-6.1c-0.5,2.1-1,4.2-1.5,6.3s-1,4.2-1.6,6.3
						c-1.1,4.2-2.2,8.4-3.4,12.5l-0.3,1.1l-0.9-0.8c-2-1.8-4-3.6-6-5.3s-3.9-3.6-5.9-5.4c-2-1.8-3.9-3.6-5.8-5.5
						S119,154,117.1,152.1z"/>
				</g>
				<g>
					<path class="st3" d="M139.5,332.3c5.5,2.2,11,4.6,16.5,6.9s11,4.7,16.4,7.1c10.9,4.8,21.8,9.7,32.7,14.6l-1.5,0.6L211,345
						c2.5-5.5,4.9-11,7.5-16.5s5.1-11,7.6-16.4s5.1-10.9,7.8-16.3c-2.2,5.6-4.6,11.2-6.8,16.8s-4.6,11.1-7,16.7s-4.8,11.1-7.1,16.6
						l-7.3,16.6l-0.4,1l-1-0.5c-10.9-5-21.7-9.9-32.5-15c-5.4-2.5-10.8-5.1-16.2-7.7C150.2,337.5,144.8,335,139.5,332.3z"/>
				</g>
				<g>
					<path class="st1" d="M239,397.9c-29.9-27.9-51.5,2.8-51.8-35.2s-28.5-42.6-46.4-39.7c-17.7,2.9-12.7-74.8-60.6-57.1l-0.2-0.3
						l-0.7,0.7c-0.3,0.1-0.6,0.2-0.9,0.4l0.2,0.3c-37.3,34.9,34.2,65.4,23.7,79.9c-10.7,14.6-19.3,42,14.5,59.3s-3.3,22.8,8.2,62.1
						s58.9,26.2,58.9,26.2l30.5-6.8l0.4,0.6l0.6-0.8l1-0.2l-0.4-0.6l19.9-24.2C235.8,462.3,268.9,425.8,239,397.9z"/>
				</g>
				<g>
					<path class="st2" d="M239,397.9c-29.9-27.9-51.5,2.8-51.8-35.2s-28.5-42.6-46.4-39.7c-17.7,2.9-12.7-74.8-60.6-57.1l-0.2-0.3
						l-0.7,0.7c-0.3,0.1-0.6,0.2-0.9,0.4l0.2,0.3l-0.1,0.1l137.7,220.2h0.2l-0.4-0.6l19.9-24.2C235.8,462.3,268.9,425.8,239,397.9z"
						/>
				</g>
				<g>
					<polygon class="st3" points="88.1,282.5 106.8,312.3 125.7,342.1 163.4,401.6 201.2,461 220.1,490.7 239.2,520.4 234.1,523.5 
						216,493.3 197.8,463.2 161.4,402.9 124.8,342.7 106.5,312.6 					"/>
				</g>
				<g>
					<path class="st3" d="M110.1,376.5c3.5,0.5,6.9,1.1,10.3,1.6s6.9,1.2,10.3,1.8c3.4,0.6,6.9,1.3,10.3,1.9c3.4,0.7,6.8,1.3,10.3,2
						l-1.2,0.8c1.3-7.6,2.7-15.1,4.1-22.7c0.7-3.8,1.5-7.5,2.3-11.3s1.6-7.5,2.5-11.3c-0.4,3.8-1,7.6-1.5,11.4s-1.1,7.6-1.7,11.4
						c-1.2,7.6-2.4,15.2-3.8,22.7l-0.2,1l-1-0.2c-3.4-0.7-6.8-1.4-10.2-2.1c-3.4-0.8-6.8-1.5-10.2-2.2c-3.4-0.8-6.8-1.5-10.2-2.4
						S113.5,377.5,110.1,376.5z"/>
				</g>
				<g>
					<path class="st3" d="M84.5,303.3c2.2,1,4.3,2.1,6.4,3.1l6.3,3.2c4.2,2.2,8.4,4.4,12.5,6.7l-1,0.5c0.2-3.8,0.5-7.6,0.8-11.5
						s0.7-7.6,1.1-11.4c0,3.8-0.1,7.7-0.2,11.5s-0.3,7.6-0.5,11.5l-0.1,1l-0.9-0.5c-4.2-2.2-8.3-4.5-12.4-6.9l-6.1-3.6
						C88.6,305.8,86.5,304.6,84.5,303.3z"/>
				</g>
				<g>
					<path class="st3" d="M139.6,454.5c5.2,0.8,10.4,1.8,15.6,2.7l15.6,2.9c10.4,2,20.8,4,31.1,6.1l-1.2,0.8c2-10.5,4.1-21,6.3-31.5
						l3.3-15.7c1.2-5.2,2.3-10.5,3.5-15.7c-0.8,5.3-1.7,10.6-2.6,15.9l-2.8,15.8c-1.9,10.5-3.8,21-5.9,31.5l-0.2,1l-1-0.2
						c-10.4-2.1-20.7-4.3-31-6.5l-15.5-3.4C149.9,456.9,144.7,455.7,139.6,454.5z"/>
				</g>
			</g>
		</g>
	</g>
	<g>
		<path class="st5" d="M300.7,125.5c-7.6-20.5-89.9,8-89.9,8l10.1,58.6c0,0,4.3-0.8,11.3-1.4l0.5-8.4l0.9,8.3
			c15.5-1.3,31.1-0.7,46.5,1.7l1.9-10.6l-0.2,10.9c3.6,0.6,7.3,1.4,11,2.3C292.7,194.9,308.3,146,300.7,125.5z"/>
	</g>
	<g>
		<path class="st6" d="M257.3,58.5c0,0,20.8,0.3,35.4,28.1c0,0,22.6,45.8-8.3,114.5c0,0,31.3-9.8,37.5-34.4
			c7.6-30.2,3.4-99.9-16.7-119.4C279.2,22.1,258,39.8,257.3,58.5z"/>
	</g>
	<g>
		<path class="st6" d="M286.5,199.8c0,0,0.9-0.3,2.5-0.9s4-1.6,6.9-3c3.5-1.7,6.8-3.7,10-6c4.1-2.9,7.9-6.4,11-10.3
			c1.8-2.3,3.3-4.7,4.6-7.3c1.3-2.8,2.3-5.7,2.8-8.8c1.3-6.5,2.1-13.2,2.4-19.8c0.3-6.9,0.3-14.1-0.1-21.4s-1.1-14.6-2.2-22
			c-1.1-7.2-2.6-14.4-4.5-21.5c-1.8-6.8-4.4-13.4-7.8-19.7c-1.6-2.9-3.6-5.6-5.9-8.1c-2.2-2.3-4.6-4.5-7.1-6.4
			c-5-3.7-10.5-6.1-15.8-6.4c-4.8-0.3-9.5,1.2-13.3,4.2c-2.9,2.3-5.2,5.2-6.7,8.5c-1,2.1-1.7,4.4-2,6.7c-0.1,0.8-0.1,1.4-0.2,1.8V60
			l-3.5-0.1v-0.7c0-0.5,0.1-1.2,0.3-2.1c0.4-2.6,1.3-5.2,2.5-7.6c1.8-3.7,4.5-7,7.9-9.5c4.4-3.2,9.7-4.8,15.2-4.3
			c5.9,0.4,11.8,3.2,16.9,7.2c2.6,2.1,5,4.3,7.3,6.8c2.4,2.6,4.4,5.4,6,8.5c3.3,6.4,5.9,13.1,7.6,20.1c1.9,7.2,3.3,14.4,4.2,21.8
			c1,7.4,1.7,14.8,2,22.1c0.3,7.1,0.3,14.3-0.1,21.4c-0.3,6.7-1.2,13.3-2.6,19.9c-0.6,3.1-1.6,6-3,8.8c-1.3,2.6-2.8,5.1-4.7,7.3
			c-3.2,3.9-7,7.4-11.1,10.2c-3.2,2.2-6.5,4.2-10,5.9c-2.9,1.4-5.3,2.4-6.9,3S286.5,199.8,286.5,199.8z"/>
	</g>
	<g>
		<path class="st7" d="M301.2,105.5c0,0,8.4-5.8,10.9,5.8s-4,29.5-11.3,28S301.2,105.5,301.2,105.5z"/>
	</g>
	<g>
		<path class="st6" d="M305.1,101.7c1.5,11.7,0.2,23.6-3.7,34.7l-1.9-34.5L305.1,101.7z"/>
	</g>
	<g>
		<path class="st8" d="M336.1,223.8c-5.5-14-42-14-53-18.9s-4.9-49.4-4.9-49.4l-19.8-3l-0.5,5.6l-0.5-5.6l-19.8,3
			c0,0,6.1,44.5-4.9,49.4s-41.8,7.3-47.3,21.3c-4,10.3,40.9,15.6,65,17.8l-0.1,1.1c0,0,2.8-0.2,7.4-0.5c4.6,0.4,7.4,0.5,7.4,0.5
			L265,244C289.5,241.9,340.1,234.1,336.1,223.8z"/>
	</g>
	<g>
		<path class="st7" d="M238.5,193.7c12.1-1.6,27.7-7.2,38-14.6c0.1-7.9,0.7-15.8,1.7-23.6l-19.8-3l-0.5,5.6l-0.5-5.6l-19.8,3
			C237.7,155.5,240.9,179,238.5,193.7z"/>
	</g>
	<g>
		<path class="st8" d="M256.3,178.6c0,0-32.9,3-44.5-39s11.9-88.6,51.8-80c43.7,9.4,45.7,68.4,33.5,92.2
			C282.2,180.8,256.3,178.6,256.3,178.6z"/>
	</g>
	<g>
		<path class="st6" d="M182.7,161.9c0,0-10.1-52,10.8-94.7c19.3-39.7,56.2-43,70.5-30.9c14.2,12.1,3.8,44.1-35.8,45.1
			c0,0-22.9,63.5,2.1,117.6C230.2,199.1,189.3,202.6,182.7,161.9z"/>
	</g>
	<g>
		<path class="st6" d="M228.1,198.1c0,0-1,0.1-2.8,0.1c-2.7,0-5.4-0.2-8-0.6c-4.1-0.6-8.2-1.6-12.1-3.1c-5.1-1.9-9.8-4.8-13.8-8.5
			c-4.7-4.5-8.2-10.1-10.3-16.2c-0.6-1.6-1-3.3-1.5-5c-0.2-0.9-0.4-1.7-0.5-2.6s-0.4-1.7-0.5-2.6c-0.6-3.6-1-7.2-1.3-10.9
			c-0.6-7.6-0.8-15.2-0.5-22.8c0.2-7.9,1.1-15.7,2.5-23.5l0.5-2.9l0.7-2.9c0.5-1.9,0.9-3.9,1.4-5.8c1.2-3.8,2.2-7.6,3.7-11.2
			l1.1-2.7c0.4-0.9,0.7-1.8,1.1-2.7c0.8-1.8,1.7-3.5,2.5-5.2c0.4-0.9,0.8-1.7,1.3-2.6l1.3-2.4c0.4-0.8,1-1.6,1.5-2.4s1-1.6,1.5-2.4
			c4-6,8.9-11.3,14.5-15.8c2.6-2.1,5.4-3.9,8.3-5.5c2.7-1.5,5.6-2.8,8.5-3.8c2.7-1,5.5-1.7,8.3-2.2c2.5-0.4,5.1-0.7,7.7-0.7
			c4.2-0.1,8.3,0.5,12.3,1.7c2.6,0.8,5,1.9,7.2,3.4c0.6,0.4,1.2,0.8,1.7,1.3l0.6,0.5l-0.6-0.4c-0.6-0.4-1.1-0.8-1.7-1.2
			c-2.3-1.4-4.7-2.4-7.3-3.1c-4-1.1-8.1-1.5-12.2-1.3c-5.3,0.3-10.6,1.4-15.6,3.3c-2.8,1.1-5.6,2.4-8.2,3.9c-2.8,1.6-5.5,3.5-8,5.5
			c-5.4,4.5-10.1,9.7-14,15.6c-0.5,0.8-1,1.5-1.5,2.3s-1,1.5-1.4,2.4l-1.4,2.5c-0.4,0.8-0.8,1.7-1.2,2.5l-2.4,5.1
			c-0.4,0.8-0.7,1.8-1.1,2.7s-0.7,1.8-1,2.7c-1.5,3.6-2.4,7.3-3.6,11c-0.5,1.9-0.9,3.8-1.4,5.7l-0.7,2.9l-0.5,2.9
			c-1.4,7.7-2.3,15.4-2.6,23.2c-0.3,7.5-0.2,15.1,0.4,22.6c0.3,3.7,0.7,7.3,1.2,10.7c0.1,0.9,0.3,1.8,0.4,2.6s0.3,1.7,0.5,2.5
			c0.4,1.6,0.8,3.3,1.4,4.9c1.9,6,5.2,11.4,9.7,15.8c2,1.9,4.2,3.7,6.6,5.1c2.1,1.4,4.4,2.5,6.7,3.5c3.8,1.6,7.8,2.7,11.8,3.4
			c2.6,0.5,5.3,0.8,7.9,0.9C227.1,198.2,228.1,198.1,228.1,198.1z"/>
	</g>
	<g>
		<path class="st6" d="M228.5,79.4c0,0-0.2,0.4-0.4,1.3s-0.6,2-1.1,3.6s-0.9,3.4-1.4,5.6s-0.9,4.7-1.5,7.3c-0.4,2.7-0.9,5.6-1.2,8.8
			c-0.1,1.6-0.4,3.2-0.5,4.8s-0.2,3.3-0.3,5c-0.1,0.9-0.1,1.7-0.2,2.6s0,1.8-0.1,2.6c0,1.8-0.1,3.6-0.1,5.3s0.1,3.6,0.1,5.4
			s0,3.6,0.2,5.5l0.4,5.5c0.1,1.8,0.2,3.6,0.4,5.4c0.5,3.6,0.7,7.1,1.3,10.5s1.1,6.7,1.6,9.8s1.2,6,1.8,8.7c0.3,1.4,0.5,2.6,0.8,3.9
			s0.6,2.4,0.8,3.5l1.4,5.6l1.2,4.9l-1.6-4.8l-1.8-5.5c-0.3-1.1-0.7-2.2-1-3.4l-1-3.8c-0.7-2.7-1.4-5.6-2.1-8.7l-1.9-9.8
			c-0.1-0.4-0.1-0.9-0.2-1.3l-0.2-1.3c-0.1-0.9-0.2-1.8-0.4-2.6c-0.2-1.8-0.5-3.6-0.7-5.4c-0.3-1.8-0.3-3.6-0.5-5.5
			s-0.3-3.7-0.4-5.5s-0.1-3.7-0.1-5.5s-0.1-3.7-0.1-5.5s0.1-3.6,0.2-5.4c0-0.9,0.1-1.8,0.1-2.7s0.1-1.7,0.2-2.6
			c0.1-1.7,0.3-3.4,0.5-5.1s0.4-3.3,0.7-4.8c0.4-3.2,1.1-6.1,1.6-8.8c0.6-2.7,1.2-5.2,1.9-7.3s1.3-4,1.8-5.6s1-2.7,1.4-3.5
			S228.5,79.4,228.5,79.4z"/>
	</g>
	<g>
		<path class="st9" d="M263.8,110.6c-0.2,1.2-0.3,2.3-0.4,3.5s-0.1,2.3-0.1,3.4s0.1,2.3,0.2,3.4s0.3,2.2,0.6,3.3
			c0.2,0.5,0.3,1.1,0.5,1.6s0.4,1,0.6,1.5s0.5,0.9,0.8,1.4c0.6,0.9,1.3,1.7,2.1,2.3c0.4,0.3,0.9,0.6,1.3,0.9l0.7,0.4l0.7,0.4
			c0.5,0.3,1,0.4,1.5,0.6l1.8,0.8l-1.5,0.9l-2.4,1.4c-0.8,0.5-1.6,0.9-2.4,1.4c-1.6,0.9-3.2,1.8-4.9,2.5c1.4-1.3,2.8-2.4,4.2-3.6
			c0.7-0.6,1.4-1.1,2.2-1.7l2.2-1.6l0.2,1.7c-0.6-0.2-1.2-0.4-1.8-0.6l-0.9-0.4l-0.8-0.4c-0.6-0.3-1.1-0.6-1.6-1s-1-0.8-1.4-1.3
			c-0.2-0.2-0.4-0.5-0.6-0.7s-0.4-0.5-0.6-0.8c-0.4-0.5-0.7-1.1-1-1.6c-0.3-0.6-0.5-1.1-0.7-1.7s-0.4-1.2-0.5-1.8
			c-0.1-0.6-0.2-1.2-0.3-1.8s-0.1-1.2-0.1-1.8c0-1.2,0-2.4,0.2-3.6s0.4-2.3,0.7-3.5C262.9,112.8,263.3,111.7,263.8,110.6z"/>
	</g>
	<g>
		<path class="st9" d="M240.7,146.5c0.1,0.1,0.2,0.1,0.3,0.2c0.2,0.1,0.6,0.3,1,0.5c1.1,0.6,2.3,1.1,3.5,1.6
			c0.7,0.3,1.6,0.5,2.4,0.8c0.4,0.1,0.9,0.2,1.3,0.4s0.9,0.3,1.4,0.3l1.4,0.3l1.5,0.2c1,0.1,2,0.2,3.1,0.2c1,0.1,2.1,0,3.1,0l3-0.3
			l2.8-0.5c0.4-0.1,0.9-0.2,1.3-0.3l1.2-0.3c0.7-0.2,1.4-0.4,2.1-0.6c0.6-0.2,1.1-0.4,1.6-0.5c0.9-0.3,1.4-0.4,1.4-0.4
			s-0.4,0.3-1.2,0.8c-0.4,0.3-0.9,0.6-1.5,0.9c-0.6,0.4-1.3,0.7-2,1c-0.8,0.4-1.6,0.7-2.4,1c-0.9,0.3-1.9,0.6-2.9,0.9
			c-1,0.2-2.1,0.4-3.2,0.5s-2.2,0.2-3.3,0.1c-1.1,0-2.2-0.2-3.3-0.4c-0.5-0.1-1.1-0.2-1.6-0.3l-1.5-0.4c-1-0.3-1.9-0.6-2.8-1.1
			c-0.8-0.4-1.6-0.8-2.4-1.3c-0.7-0.4-1.3-0.8-1.9-1.3c-0.5-0.4-1-0.8-1.3-1.1C241.4,147.2,241,146.9,240.7,146.5z"/>
	</g>
	<g>
		<path class="st9" d="M246.7,153.4c0,0,0.3,0.2,0.9,0.4c0.3,0.2,0.7,0.3,1.1,0.4c0.4,0.2,0.9,0.3,1.4,0.5s1.1,0.3,1.7,0.4
			s1.2,0.2,1.9,0.3s1.4,0.1,2.1,0.2s1.4,0,2.1,0s1.4-0.1,2.1-0.1c0.7-0.1,1.4-0.2,2-0.3l1.9-0.4c0.6-0.1,1.2-0.3,1.7-0.4
			s1-0.3,1.4-0.4l1.1-0.4l1-0.3c0,0-0.3,0.2-0.9,0.5l-1,0.6c-0.4,0.2-0.9,0.5-1.4,0.6c-0.5,0.2-1.1,0.4-1.7,0.6l-1.9,0.5
			c-0.7,0.1-1.4,0.3-2.1,0.4c-0.7,0.1-1.5,0.1-2.2,0.2c-0.7,0.1-1.5,0-2.2-0.1s-1.4-0.2-2.1-0.3c-0.7-0.1-1.3-0.3-2-0.5
			c-0.6-0.2-1.1-0.4-1.7-0.6c-0.5-0.2-0.9-0.4-1.4-0.7c-0.4-0.2-0.7-0.4-1-0.6C247.2,153.8,247,153.6,246.7,153.4z"/>
	</g>
	<g>
		<path class="st10" d="M226.1,116.5c0,0,0.3,0.4,0.9,1s1.5,1.5,2.6,2.5c0.6,0.5,1.2,1,1.8,1.5c0.7,0.5,1.4,1,2.2,1.4
			s1.6,0.8,2.4,1.1c0.9,0.3,1.7,0.4,2.6,0.5c0.9,0,1.8-0.1,2.6-0.3c0.4-0.1,0.8-0.3,1.3-0.4s0.8-0.4,1.2-0.6s0.8-0.4,1.1-0.7l1-0.7
			c0.6-0.6,1.3-1,1.8-1.6s1-1,1.4-1.4s0.8-0.8,1.1-1.2c0.6-0.7,0.9-1,0.9-1s-0.2,0.5-0.6,1.3c-0.2,0.5-0.5,1-0.8,1.4
			c-0.3,0.6-0.7,1.2-1.1,1.8c-0.5,0.7-1,1.3-1.6,1.9l-1,0.9c-0.4,0.3-0.8,0.6-1.2,0.9s-0.9,0.5-1.3,0.8c-0.5,0.2-1,0.4-1.5,0.6
			c-1.1,0.3-2.2,0.5-3.3,0.4s-2.2-0.3-3.2-0.6c-1-0.4-1.9-0.8-2.8-1.4c-1.5-1-2.8-2.2-3.9-3.6c-0.8-1-1.5-2-2.1-3.1
			C226.5,117.4,226.3,116.9,226.1,116.5z"/>
	</g>
	<g>
		<path class="st10" d="M268.4,116.5c0,0,0.3,0.4,0.9,1s1.5,1.5,2.6,2.5c0.6,0.5,1.2,1,1.8,1.5c0.7,0.5,1.4,1,2.2,1.4
			c0.8,0.4,1.6,0.8,2.4,1.1c0.9,0.3,1.7,0.4,2.6,0.5c0.9,0,1.8-0.1,2.6-0.3c0.4-0.1,0.8-0.3,1.3-0.4c0.4-0.1,0.8-0.4,1.2-0.6
			s0.8-0.4,1.1-0.7l1-0.7c0.6-0.6,1.3-1,1.8-1.6s1-1,1.4-1.4s0.8-0.8,1.1-1.2c0.6-0.7,0.9-1,0.9-1l-0.6,1.3c-0.2,0.5-0.5,1-0.8,1.4
			c-0.3,0.6-0.7,1.2-1.1,1.8c-0.5,0.7-1,1.3-1.6,1.9l-1,0.9c-0.4,0.3-0.8,0.6-1.2,0.9s-0.9,0.5-1.3,0.8c-0.5,0.2-1,0.4-1.5,0.6
			c-1.1,0.3-2.2,0.5-3.3,0.4c-1.1-0.1-2.2-0.3-3.2-0.6c-1-0.4-1.9-0.8-2.8-1.4c-1.5-1-2.8-2.2-3.9-3.6c-0.8-1-1.5-2-2.1-3.1
			C268.8,117.4,268.6,116.9,268.4,116.5z"/>
	</g>
	<g>
		<path class="st10" d="M266.5,108.3c0-0.1,0-0.3,0.1-0.4c0.1-0.4,0.2-0.8,0.3-1.2c0.2-0.6,0.4-1.2,0.6-1.8c0.3-0.8,0.7-1.5,1.1-2.2
			c0.5-0.9,1.1-1.7,1.8-2.4c0.4-0.4,0.8-0.8,1.2-1.2c0.4-0.4,0.9-0.8,1.4-1.1c0.5-0.4,1-0.7,1.6-1s1.1-0.6,1.7-0.8
			c0.6-0.3,1.2-0.4,1.9-0.6c0.6-0.2,1.3-0.3,2-0.3h1h0.6h0.4c0.6,0,1.1,0.1,1.8,0.2c0.6,0.1,1.3,0.2,1.9,0.4
			c0.6,0.2,1.2,0.3,1.7,0.6c1.1,0.4,2.1,0.9,3,1.6c0.8,0.6,1.6,1.2,2.3,1.9c0.6,0.6,1.1,1.3,1.6,2c0.4,0.5,0.7,1.1,0.9,1.7
			c0.2,0.5,0.4,1,0.5,1.6c0,0-0.4-0.4-1.2-1.1c-0.4-0.3-0.9-0.7-1.4-1.1c-0.3-0.2-0.6-0.4-0.9-0.6s-0.7-0.4-1-0.6
			c-0.7-0.4-1.5-0.8-2.3-1.1c-0.9-0.3-1.8-0.6-2.7-0.8c-0.5-0.1-0.9-0.2-1.4-0.3c-0.5-0.1-0.9-0.1-1.4-0.2s-1.1,0-1.7-0.1h-0.4
			c0,0,0.2,0,0.1,0h-0.1h-0.2h-0.7c-0.5,0-1,0.1-1.4,0.2c-0.5,0.1-0.9,0.2-1.4,0.3c-0.5,0.1-0.9,0.3-1.4,0.5
			c-0.4,0.2-0.9,0.4-1.3,0.6s-0.8,0.4-1.2,0.7c-0.4,0.2-0.8,0.5-1.1,0.8c-0.7,0.5-1.4,1-2,1.6c-0.6,0.5-1.2,1.1-1.7,1.6
			s-0.9,0.9-1.2,1.3C266.9,107.9,266.5,108.3,266.5,108.3z"/>
	</g>
	<g>
		<path class="st10" d="M223.1,108.3c0-0.1,0-0.3,0.1-0.4c0.1-0.4,0.2-0.8,0.3-1.2c0.2-0.6,0.4-1.2,0.6-1.8c0.3-0.8,0.7-1.5,1.1-2.2
			c0.5-0.9,1.1-1.7,1.8-2.4c0.4-0.4,0.8-0.8,1.2-1.2c0.4-0.4,0.9-0.8,1.4-1.1c0.5-0.4,1-0.7,1.6-1s1.1-0.6,1.7-0.8
			c0.6-0.3,1.2-0.4,1.9-0.6c0.6-0.2,1.3-0.3,1.9-0.3h1h0.6h0.4c0.6,0,1.1,0.1,1.8,0.2c0.6,0.1,1.3,0.2,1.9,0.4
			c0.6,0.2,1.2,0.3,1.7,0.6c1.1,0.4,2.1,0.9,3.1,1.6c0.8,0.6,1.6,1.2,2.3,1.9c0.6,0.6,1.1,1.3,1.6,2c0.4,0.5,0.7,1.1,0.9,1.7
			c0.2,0.5,0.4,1,0.5,1.6c0,0-0.4-0.4-1.2-1.1c-0.4-0.3-0.9-0.7-1.4-1.1c-0.3-0.2-0.6-0.4-0.9-0.6c-0.3-0.2-0.7-0.4-1-0.6
			c-0.7-0.4-1.5-0.8-2.3-1.1c-0.9-0.3-1.8-0.6-2.7-0.8c-0.5-0.1-0.9-0.2-1.4-0.3s-0.9-0.1-1.4-0.2s-1.1,0-1.7-0.1H238
			c0,0,0.2,0,0.1,0h-0.2h-0.2H237c-0.5,0-1,0.1-1.4,0.2c-0.5,0.1-0.9,0.2-1.4,0.3c-0.5,0.1-0.9,0.3-1.4,0.5
			c-0.4,0.2-0.9,0.4-1.3,0.6c-0.4,0.2-0.8,0.4-1.2,0.7c-0.4,0.2-0.8,0.5-1.1,0.8c-0.7,0.5-1.4,1-2,1.6c-0.6,0.5-1.2,1.1-1.7,1.6
			s-0.9,0.9-1.2,1.3C223.5,107.9,223.1,108.3,223.1,108.3z"/>
	</g>
	<g>
		<path class="st6" d="M361.7,480.5c-3.7-81.4-52.9-122.8-52.9-122.8l-1.6-16.7l-33.8-0.3v-0.2l-12.3,0.1l-12.3-0.1v0.2L215,341
			l-1.6,16.7c0,0-49.2,41.4-52.9,122.8H361.7z"/>
	</g>
	<g>
		<path class="st5" d="M255.7,362.3c11.5,0.2,22.9-0.6,34.2-2.4c6.3-1,13-2.3,18.7-5.3l-1.3-13.6l-33.8-0.3v-0.2l-12.3,0.1
			l-12.3-0.1v0.2l-33.8,0.3l-1.5,16.4C227.4,360.4,241.5,362.1,255.7,362.3z"/>
	</g>
	<g>
		<path class="st8" d="M315.9,216.6c0,0,24.4-6.4,29.6,18S340.8,339,346,358.7s19.7,46.4,9.3,101.5l-51.6-100.9L315.9,216.6z"/>
	</g>
	<g>
		<path class="st7" d="M346.4,283.2c0.8-20.2,1.1-38.8-1-48.6c-5.2-24.4-29.6-18-29.6-18l-7.7,89.9
			C321.5,299.6,334.2,291.8,346.4,283.2z"/>
	</g>
	<g>
		<path class="st7" d="M174.6,259.8c0,0,0.6,42.6-2.4,67s4.9,47.5,28,45.7s28.6-76.8,28.6-76.8L174.6,259.8z"/>
	</g>
	<g>
		<path class="st11" d="M210.1,209.8c0,0,13.9,29.3,46.1,26.1c37.2-3.6,47.5-27.4,47.5-27.4s31.1-0.6,39,13.4s14,32.3,15.8,39
			c0,0-14,11-31.7,15.2c0,0,5.5,31.7-13.4,46.9l-3,21.3c0,0-10.4,14.6-96.9,1.8l-1.8-26.2c0,0-20.7-15.2-13.4-46.9l11,11.6
			c0,0-29.8-2.4-52.3-23.5C157,261.2,167.8,214,210.1,209.8z"/>
	</g>
	<g>
		<path class="st12" d="M278.3,266.2v-45.9c0-3.2,0-9.5,4.4-9.5h21.8c0,0,3.8,0,3.8,7.1c0,5.1,0,48.3,0,48.3H278.3z"/>
	</g>
	<g>
		<path class="st8" d="M179.2,365.3c0,0-16.7-25.7,22.9-49.3c35.3-21,72.9-54.1,72.9-54.1s11.8-50,6.9-3.5c0,0,52.1-52.8,11.8-4.2
			c0,0,50-45.1,6.9,5.6c0,0,42.3-33.3,4.2,4.9c0,0,34-28.4-4.2,12.5S211.9,397.9,179.2,365.3z"/>
	</g>
	<g>
		<circle class="st13" cx="283.3" cy="215.3" r="1.1"/>
	</g>
	<g>
		<circle class="st13" cx="286.4" cy="215.3" r="1.1"/>
	</g>
	<g>
		<path class="st14" d="M444.4,194.8H359c-16.6,0-30.1-13.5-30.1-30.1V30.1C328.9,13.5,342.4,0,359,0h85.4
			c16.6,0,30.1,13.5,30.1,30.1v134.6C474.5,181.3,461,194.8,444.4,194.8z M359,5c-13.8,0-25.1,11.3-25.1,25.1v134.6
			c0,13.8,11.3,25.1,25.1,25.1h85.4c13.8,0,25.1-11.3,25.1-25.1V30.1c0-13.8-11.3-25.1-25.1-25.1H359z"/>
	</g>
	<g class="st15">
		<path class="st14" d="M405,134c1.7,2,2.6,4.7,2.6,8.1v22.4c0,3.6-0.8,6.4-2.5,8.4c-1.7,2-4.2,3-7.7,3c-3.3,0-5.7-1-7.4-2.9
			c-1.7-1.9-2.5-4.7-2.5-8.1V164h4.6v1.1c0,2,0.4,3.6,1.3,4.6c0.9,1.1,2.2,1.6,3.9,1.6c1.8,0,3.2-0.6,4.1-1.8
			c0.9-1.2,1.3-2.9,1.3-5.3v-9.8c-1.2,3.1-3.6,4.6-7.1,4.6c-2.8,0-4.8-0.9-6.1-2.7c-1.3-1.8-2-4.4-2-7.6v-6.7c0-3.4,0.8-6.1,2.5-8.1
			c1.7-2,4.2-2.9,7.5-2.9C400.7,131,403.2,132,405,134z M393.5,137.1c-0.9,1.1-1.3,2.7-1.3,4.7v6.6c0,2,0.4,3.6,1.3,4.7
			c0.9,1.1,2.2,1.7,3.9,1.7c1.8,0,3.1-0.6,3.9-1.7c0.9-1.1,1.3-2.7,1.3-4.7v-6.6c0-4.2-1.7-6.3-5.2-6.3
			C395.7,135.5,394.4,136,393.5,137.1z"/>
		<path class="st14" d="M429.4,134c1.7,2,2.6,4.7,2.6,8.1v22.4c0,3.6-0.8,6.4-2.5,8.4c-1.7,2-4.2,3-7.7,3c-3.3,0-5.7-1-7.4-2.9
			c-1.7-1.9-2.5-4.7-2.5-8.1V164h4.6v1.1c0,2,0.4,3.6,1.3,4.6c0.9,1.1,2.2,1.6,3.9,1.6c1.8,0,3.2-0.6,4.1-1.8
			c0.9-1.2,1.3-2.9,1.3-5.3v-9.8c-1.2,3.1-3.6,4.6-7.1,4.6c-2.8,0-4.8-0.9-6.1-2.7c-1.3-1.8-2-4.4-2-7.6v-6.7c0-3.4,0.8-6.1,2.5-8.1
			c1.7-2,4.2-2.9,7.5-2.9C425.1,131,427.6,132,429.4,134z M417.9,137.1c-0.9,1.1-1.3,2.7-1.3,4.7v6.6c0,2,0.4,3.6,1.3,4.7
			c0.9,1.1,2.2,1.7,3.9,1.7c1.8,0,3.1-0.6,3.9-1.7c0.9-1.1,1.3-2.7,1.3-4.7v-6.6c0-4.2-1.7-6.3-5.2-6.3
			C420.1,135.5,418.8,136,417.9,137.1z"/>
		<path class="st14" d="M453.8,134c1.7,2,2.6,4.7,2.6,8.1v22.4c0,3.6-0.8,6.4-2.5,8.4c-1.7,2-4.2,3-7.7,3c-3.3,0-5.7-1-7.4-2.9
			c-1.7-1.9-2.5-4.7-2.5-8.1V164h4.6v1.1c0,2,0.4,3.6,1.3,4.6c0.9,1.1,2.2,1.6,3.9,1.6c1.8,0,3.2-0.6,4.1-1.8
			c0.9-1.2,1.3-2.9,1.3-5.3v-9.8c-1.2,3.1-3.6,4.6-7.1,4.6c-2.8,0-4.8-0.9-6.1-2.7c-1.3-1.8-2-4.4-2-7.6v-6.7c0-3.4,0.8-6.1,2.5-8.1
			c1.7-2,4.2-2.9,7.5-2.9C449.5,131,452,132,453.8,134z M442.3,137.1c-0.9,1.1-1.3,2.7-1.3,4.7v6.6c0,2,0.4,3.6,1.3,4.7
			c0.9,1.1,2.2,1.7,3.9,1.7c1.8,0,3.1-0.6,3.9-1.7c0.9-1.1,1.3-2.7,1.3-4.7v-6.6c0-4.2-1.7-6.3-5.2-6.3
			C444.5,135.5,443.2,136,442.3,137.1z"/>
	</g>
	<g class="st15">
		<path class="st14" d="M350.6,50.3V30.4h2.8l4.6,14.4V30.4h2v19.9h-2.3l-5.1-16.1v16.1H350.6z"/>
	</g>
	<g class="st15">
		<path class="st14" d="M363.8,50.3h-2l3.8-19.9h3.2l3.8,19.9h-2.2l-0.8-4h-5L363.8,50.3z M369.2,44.4L367,32.9l-2.2,11.5H369.2z"/>
	</g>
	<g class="st15">
		<path class="st14" d="M376.1,32.4h-3.7v-2h9.5v2h-3.7v17.9h-2.2V32.4z"/>
		<path class="st14" d="M385.7,50.3h-2.2V30.4h2.2V50.3z"/>
		<path class="st14" d="M388.9,31.5c0.8-0.9,1.9-1.3,3.4-1.3c1.5,0,2.6,0.4,3.4,1.3c0.8,0.9,1.2,2.1,1.2,3.7v10.3
			c0,1.6-0.4,2.8-1.2,3.7c-0.8,0.9-1.9,1.3-3.4,1.3c-1.5,0-2.6-0.4-3.4-1.3c-0.8-0.9-1.2-2.1-1.2-3.7V35.2
			C387.8,33.6,388.2,32.4,388.9,31.5z M390.6,47.7c0.4,0.5,1,0.7,1.8,0.7c1.6,0,2.4-1,2.4-2.9V35.1c0-0.9-0.2-1.6-0.6-2.1
			c-0.4-0.5-1-0.8-1.8-0.8c-0.8,0-1.4,0.3-1.8,0.8c-0.4,0.5-0.6,1.2-0.6,2.1v10.5C390,46.5,390.2,47.2,390.6,47.7z"/>
		<path class="st14" d="M399,50.3V30.4h2.8l4.6,14.4V30.4h2v19.9h-2.3L401,34.2v16.1H399z"/>
		<path class="st14" d="M412.1,50.3h-2l3.8-19.9h3.2l3.8,19.9h-2.2l-0.8-4h-5L412.1,50.3z M417.6,44.4l-2.2-11.5l-2.2,11.5H417.6z"
			/>
		<path class="st14" d="M422.7,30.4h2.2v17.9h5.7v2h-7.9V30.4z"/>
	</g>
	<g class="st15">
		<path class="st14" d="M357.7,75.3h-4.9v7.1h6v2h-8.2V64.5h8.2v2h-6v6.8h4.9V75.3z"/>
		<path class="st14" d="M366.1,84.4l-3.3-15.8v15.9h-1.9V64.5h3.1l3.3,15.9l3.2-15.9h3.1v19.9h-2.1v-16l-3.2,16H366.1z"/>
		<path class="st14" d="M382.9,75.3H378v7.1h6v2h-8.2V64.5h8.2v2h-6v6.8h4.9V75.3z"/>
		<path class="st14" d="M393.8,65.6c0.7,0.8,1.1,1.9,1.1,3.4v1.6c0,1.1-0.2,2-0.6,2.7c-0.4,0.7-1,1.2-1.9,1.4
			c0.9,0.3,1.5,0.7,1.9,1.4s0.6,1.6,0.6,2.7V82c0,0.5,0,1,0.1,1.4c0,0.4,0.2,0.7,0.3,1h-2.2c-0.1-0.3-0.2-0.6-0.3-1
			s-0.1-0.8-0.1-1.5v-3.1c0-1.1-0.2-1.8-0.7-2.3s-1.2-0.7-2.2-0.7h-1.6v8.5H386V64.5h4.4C392,64.5,393.1,64.9,393.8,65.6z M392,73.3
			c0.5-0.4,0.7-1.1,0.7-2.1v-1.9c0-0.9-0.2-1.6-0.5-2s-0.9-0.7-1.8-0.7h-2.2v7.4h1.7C390.8,73.9,391.5,73.7,392,73.3z"/>
		<path class="st14" d="M404.9,65.6c0.7,0.9,1.1,2.1,1.1,3.7V71h-2.1v-1.8c0-1.9-0.8-2.9-2.3-2.9c-0.8,0-1.4,0.3-1.7,0.8
			c-0.4,0.5-0.6,1.2-0.6,2.1v10.5c0,0.9,0.2,1.6,0.6,2.1c0.4,0.5,1,0.8,1.7,0.8c1.6,0,2.3-1,2.3-2.9v-4h-2v-2h4.2v5.9
			c0,1.6-0.4,2.8-1.1,3.7s-1.9,1.3-3.4,1.3c-1.5,0-2.6-0.4-3.3-1.3s-1.1-2.1-1.1-3.7V69.3c0-1.6,0.4-2.8,1.1-3.7
			c0.7-0.9,1.9-1.3,3.3-1.3C403,64.3,404.1,64.7,404.9,65.6z"/>
		<path class="st14" d="M415.2,75.3h-4.9v7.1h6v2h-8.2V64.5h8.2v2h-6v6.8h4.9V75.3z"/>
		<path class="st14" d="M418.3,84.4V64.5h2.8l4.6,14.4V64.5h2v19.9h-2.3l-5.1-16.1v16.1H418.3z"/>
	</g>
	<g class="st15">
		<path class="st14" d="M437.6,65.6c0.7,0.9,1.1,2.1,1.1,3.7v1.8h-2.1v-1.9c0-1.9-0.8-2.9-2.3-2.9c-0.8,0-1.4,0.3-1.8,0.8
			c-0.4,0.5-0.6,1.2-0.6,2.1v10.5c0,0.9,0.2,1.6,0.6,2.1c0.4,0.5,1,0.8,1.8,0.8c1.6,0,2.3-1,2.3-2.9v-2.6h2.1v2.5
			c0,1.6-0.4,2.8-1.1,3.7c-0.8,0.9-1.9,1.3-3.4,1.3c-1.5,0-2.6-0.4-3.3-1.3c-0.8-0.9-1.1-2.1-1.1-3.7V69.3c0-1.6,0.4-2.8,1.1-3.7
			c0.7-0.9,1.9-1.3,3.3-1.3C435.8,64.3,436.9,64.7,437.6,65.6z"/>
	</g>
	<g class="st15">
		<path class="st14" d="M439.8,64.5h2.3l3.1,9.8l3.1-9.8h2.1l-4.2,12.8v7.1H444v-7.1L439.8,64.5z"/>
	</g>
	<g class="st15">
		<path class="st14" d="M350.6,118.5V98.6h2.8L358,113V98.6h2v19.9h-2.3l-5.1-16.1v16.1H350.6z"/>
		<path class="st14" d="M366.7,116.7c0.8,0,1.4-0.2,1.7-0.7c0.4-0.5,0.6-1.2,0.6-2.1V98.6h2.1v15.1c0,1.6-0.4,2.8-1.1,3.7
			c-0.7,0.9-1.9,1.3-3.4,1.3c-1.5,0-2.6-0.5-3.3-1.4c-0.7-0.9-1.1-2.1-1.1-3.7V98.6h2.2v15.2C364.4,115.8,365.2,116.7,366.7,116.7z"
			/>
		<path class="st14" d="M378.5,118.5l-3.3-15.8v15.9h-1.9V98.6h3.1l3.3,15.9l3.2-15.9h3.1v19.9h-2.1v-16l-3.2,16H378.5z"/>
		<path class="st14" d="M395.9,99.7c0.7,0.7,1,1.8,1,3.3v0.9c0,1.1-0.2,2-0.5,2.6c-0.4,0.6-1,1.1-1.8,1.4c1.8,0.5,2.7,1.9,2.7,4.3
			v1.7c0,1.5-0.4,2.7-1.1,3.5c-0.8,0.8-1.9,1.2-3.4,1.2h-4.6V98.6h4.5C394.2,98.6,395.3,99,395.9,99.7z M394.1,106.5
			c0.4-0.4,0.6-1.1,0.6-2.1v-1.2c0-0.9-0.2-1.6-0.5-2c-0.3-0.4-0.9-0.6-1.7-0.6h-2.2v6.4h1.7C393,107.1,393.7,106.9,394.1,106.5z
			 M394.5,115.9c0.4-0.4,0.6-1.1,0.6-2v-1.8c0-1.1-0.2-1.8-0.7-2.3c-0.4-0.4-1.1-0.7-2.1-0.7h-1.9v7.4h2.4
			C393.6,116.5,394.2,116.3,394.5,115.9z"/>
		<path class="st14" d="M406.4,109.4h-4.9v7.1h6v2h-8.2V98.6h8.2v2h-6v6.8h4.9V109.4z"/>
		<path class="st14" d="M417.4,99.8c0.7,0.8,1.1,1.9,1.1,3.4v1.6c0,1.1-0.2,2-0.6,2.7c-0.4,0.7-1,1.2-1.9,1.4
			c0.9,0.3,1.5,0.7,1.9,1.4s0.6,1.6,0.6,2.7v3.1c0,0.5,0,1,0.1,1.4c0,0.4,0.2,0.7,0.3,1h-2.2c-0.1-0.3-0.2-0.6-0.3-1
			s-0.1-0.8-0.1-1.5V113c0-1.1-0.2-1.8-0.7-2.3s-1.2-0.7-2.2-0.7h-1.6v8.5h-2.2V98.6h4.4C415.5,98.6,416.7,99,417.4,99.8z
			 M415.6,107.4c0.5-0.4,0.7-1.1,0.7-2.1v-1.9c0-0.9-0.2-1.6-0.5-2s-0.9-0.7-1.8-0.7h-2.2v7.4h1.7
			C414.4,108,415.1,107.8,415.6,107.4z"/>
	</g>
</g>
</svg>
