<svg id="Capa_1" data-name="Capa 1" xmlns="http://www.w3.org/2000/svg" xmlns:xlink="http://www.w3.org/1999/xlink" viewBox="0 0 364.67 389.09"><defs><style>.cls-1,.cls-2{fill:none;}.cls-2{stroke:#1d1d1b;stroke-miterlimit:10;stroke-width:2px;stroke-dasharray:6;}.cls-3{clip-path:url(#clip-path);}.cls-4{fill:#fdc300;}.cls-5{fill:#d9b88e;}.cls-6{fill:#eec89b;}.cls-7{fill:#432918;}.cls-8{fill:#0d3953;}.cls-9{fill:#041f30;}.cls-10{fill:#000512;}.cls-11{fill:#072639;}.cls-12{fill:#c57b28;}.cls-13{fill:#f9b233;}.cls-14{fill:#fbc05b;}.cls-15{fill:#f49633;}.cls-16{fill:#e84341;}.cls-17{fill:#d53e3b;}.cls-18{fill:#fff;}.cls-19{fill:#7ba7af;}.cls-20{fill:#6097a2;}</style><clipPath id="clip-path" transform="translate(-30.26 -14.58)"><circle class="cls-1" cx="212.6" cy="229.61" r="147.38" transform="translate(-100.09 217.58) rotate(-45)"/></clipPath></defs><title>police</title><circle class="cls-2" cx="182.33" cy="206.76" r="181.33"/><g class="cls-3"><circle class="cls-4" cx="212.6" cy="229.61" r="147.38" transform="translate(-130.35 203) rotate(-45)"/><path class="cls-5" d="M188,255.68s5.53,16-2.12,24.48H240.2s-10.86-9.53-2.82-24.48Z" transform="translate(-30.26 -14.58)"/><path class="cls-6" d="M268.77,193.5C268.24,152.91,244.27,120,214,120s-54.73,32.92-54.73,73.51c0,0-2.38,36.75,30.35,63.58,0,0,24.37,26,51-1.26C240.7,255.82,269.31,234.28,268.77,193.5Z" transform="translate(-30.26 -14.58)"/><path class="cls-7" d="M166.83,207.46s-13.42-49.9,25.22-75.12c0,0,22-17.17,37.55,13.41,0,0-3.22-5.52,1.61-14.56a43.68,43.68,0,0,1,16.64,32.27s6.29-20,4.05-22.77c0,0,17.19,38.06,7.53,66.5l9.09-4.83,2.26-15.55s10.33-63.06-46.54-81.84c0,0-69.48-11.62-67.47,66.09l2.57,26.69Z" transform="translate(-30.26 -14.58)"/><path class="cls-6" d="M266,182.1s11.29-12.34,11,12.19c0,0-1.39,25.05-11,22" transform="translate(-30.26 -14.58)"/><path class="cls-6" d="M162.28,182.1s-11.29-12.34-11,12.19c0,0,1.39,25.05,11,22" transform="translate(-30.26 -14.58)"/><path class="cls-8" d="M163.07,164.43,145.9,131.22,188.82,98h54.73l39.71,34.4L266,171.06S224.24,126.47,163.07,164.43Z" transform="translate(-30.26 -14.58)"/><path class="cls-9" d="M266,171.06c-57.56,16.81-104.05,0-104.05,0l.36-7.37S184.87,143.2,213,143.26c0,0,27.16-2.34,55.74,22.11Z" transform="translate(-30.26 -14.58)"/><path class="cls-10" d="M162.28,169.52S184.87,149,213,149.09c0,0,25.88-2.21,53.69,20.42l2-4.14C240.2,140.92,213,143.26,213,143.26c-28.17-.06-50.76,20.43-50.76,20.43l-.36,7.37.28.1Z" transform="translate(-30.26 -14.58)"/><path class="cls-5" d="M212.73,278.53C206.2,278,92,270.72,100.83,360.38H324.64C333.5,270.72,219.27,278,212.73,278.53Z" transform="translate(-30.26 -14.58)"/><path class="cls-8" d="M322.29,399c19.9-99.23-34.87-112.8-68.67-118.4l-40.89,48.64-38.95-48.94c-34.34,5.26-92.21,17.42-69.61,118.7Z" transform="translate(-30.26 -14.58)"/><polygon class="cls-11" points="159.45 256.41 182.47 283.56 209.94 256.41 228.94 267.07 182.47 314.68 136.77 266.91 159.45 256.41"/><path class="cls-12" d="M275.47,346.11l-.43-1-6.72-.87-.09,2.13c-.06,1.66-.43,3.65-1.84,3.65a2.07,2.07,0,0,1-.28,0l-.21-.08h-.06a9.83,9.83,0,0,1,.07-3.85l.47-2.33H253.61l.45,2.33a9.77,9.77,0,0,1,.08,3.83l-.24.09a1.41,1.41,0,0,1-.31,0c-1.41,0-1.78-2-1.85-3.65l-.08-2.13-6.72.87-.44,1c-1.61,3.85-.47,9.95-.25,11a28,28,0,0,0,14.85,20.72l.89.45.89-.45a28,28,0,0,0,14.85-20.72C276,356.07,277.09,350,275.47,346.11Z" transform="translate(-30.26 -14.58)"/><path class="cls-13" d="M273.91,345.49l-.43-1-6.73-.87-.08,2.13c-.06,1.67-.44,3.65-1.85,3.65a2,2,0,0,1-.27,0l-.22-.08h-.05a9.83,9.83,0,0,1,.07-3.85l.46-2.33H252.05l.45,2.33a10,10,0,0,1,.08,3.83l-.24.09a1.52,1.52,0,0,1-.31,0c-1.41,0-1.78-2-1.85-3.65l-.08-2.13-6.72.87-.44,1c-1.61,3.85-.47,9.95-.26,11a28,28,0,0,0,14.86,20.72l.89.45.88-.45a28,28,0,0,0,14.86-20.72C274.38,355.44,275.52,349.34,273.91,345.49Z" transform="translate(-30.26 -14.58)"/><path class="cls-14" d="M272.11,346.36l-3.49-.45c-.26,6.7-4.62,5.42-4.62,5.42-2.79,0-1.57-6.18-1.57-6.18h-8s1.22,6.18-1.57,6.18c0,0-4.36,1.28-4.62-5.42l-3.49.45c-1.48,3.54-.13,9.95-.13,9.95s1.35,13,13.82,19.29c12.46-6.33,13.81-19.29,13.81-19.29S273.59,349.9,272.11,346.36Z" transform="translate(-30.26 -14.58)"/><polygon class="cls-15" points="228.16 338.33 230.02 342.55 234.6 342.05 231.88 345.77 234.6 349.49 230.02 349 228.16 353.21 226.3 349 221.72 349.49 224.44 345.77 221.72 342.05 226.3 342.55 228.16 338.33"/><rect class="cls-11" x="172.91" y="302.6" width="17.71" height="81.83"/><path class="cls-12" d="M216.86,335a4.83,4.83,0,1,1-4.83-4.7A4.77,4.77,0,0,1,216.86,335Z" transform="translate(-30.26 -14.58)"/><path class="cls-13" d="M217.56,335a4.83,4.83,0,1,1-4.83-4.7A4.77,4.77,0,0,1,217.56,335Z" transform="translate(-30.26 -14.58)"/><path class="cls-14" d="M217.56,335a3.49,3.49,0,1,1-3.48-3.39A3.44,3.44,0,0,1,217.56,335Z" transform="translate(-30.26 -14.58)"/><path class="cls-12" d="M216.51,386.2a4.83,4.83,0,1,1-4.83-4.7A4.77,4.77,0,0,1,216.51,386.2Z" transform="translate(-30.26 -14.58)"/><path class="cls-13" d="M217.21,386.2a4.83,4.83,0,1,1-4.83-4.7A4.77,4.77,0,0,1,217.21,386.2Z" transform="translate(-30.26 -14.58)"/><ellipse class="cls-14" cx="183.46" cy="371.62" rx="3.48" ry="3.39"/><polygon class="cls-13" points="132.02 108.02 120.99 117.49 134.15 142.6 126.46 118.03 132.02 108.02"/><polygon class="cls-13" points="236.76 109.49 247.8 118.96 234.64 144.07 242.32 119.5 236.76 109.49"/><path class="cls-12" d="M169.24,163.21a2.42,2.42,0,1,1-2.41-2.35A2.38,2.38,0,0,1,169.24,163.21Z" transform="translate(-30.26 -14.58)"/><path class="cls-13" d="M169.59,163.21a2.41,2.41,0,1,1-2.41-2.35A2.38,2.38,0,0,1,169.59,163.21Z" transform="translate(-30.26 -14.58)"/><path class="cls-14" d="M169.59,163.21a1.74,1.74,0,1,1-1.74-1.69A1.72,1.72,0,0,1,169.59,163.21Z" transform="translate(-30.26 -14.58)"/><path class="cls-12" d="M264,163.21a2.42,2.42,0,1,1-2.42-2.35A2.38,2.38,0,0,1,264,163.21Z" transform="translate(-30.26 -14.58)"/><path class="cls-13" d="M264.39,163.21a2.42,2.42,0,1,1-2.42-2.35A2.38,2.38,0,0,1,264.39,163.21Z" transform="translate(-30.26 -14.58)"/><ellipse class="cls-14" cx="232.38" cy="148.64" rx="1.74" ry="1.7"/><path class="cls-12" d="M230.3,107.7l-.44-1-6.72-.87-.09,2.14c-.06,1.66-.43,3.64-1.84,3.64a2.07,2.07,0,0,1-.28,0l-.21-.07h-.06a9.83,9.83,0,0,1,.07-3.85l.47-2.33H208.43l.45,2.33a9.77,9.77,0,0,1,.08,3.83l-.24.09a2.08,2.08,0,0,1-.31,0c-1.41,0-1.78-2-1.85-3.64l-.08-2.14-6.72.87-.44,1c-1.61,3.86-.47,10-.25,11a28,28,0,0,0,14.85,20.72l.89.45.89-.45a28,28,0,0,0,14.85-20.72C230.77,117.66,231.91,111.56,230.3,107.7Z" transform="translate(-30.26 -14.58)"/><path class="cls-13" d="M228.73,107.07l-.43-1-6.73-.88-.08,2.14c-.06,1.66-.44,3.65-1.85,3.65a1.36,1.36,0,0,1-.27,0l-.22-.07h-.05a9.83,9.83,0,0,1,.07-3.85l.46-2.33H206.87l.45,2.33a9.77,9.77,0,0,1,.08,3.83l-.24.09a1.52,1.52,0,0,1-.31,0c-1.41,0-1.78-2-1.85-3.65l-.08-2.14-6.72.88-.44,1c-1.61,3.86-.47,10-.26,11a28,28,0,0,0,14.86,20.72l.89.45.88-.45A28,28,0,0,0,229,118.09C229.21,117,230.34,110.93,228.73,107.07Z" transform="translate(-30.26 -14.58)"/><path class="cls-14" d="M226.93,108l-3.49-.46c-.26,6.71-4.62,5.43-4.62,5.43-2.78,0-1.57-6.18-1.57-6.18h-8s1.22,6.18-1.57,6.18c0,0-4.36,1.28-4.62-5.43l-3.49.46c-1.48,3.54-.13,10-.13,10s1.35,13,13.82,19.29c12.46-6.33,13.81-19.29,13.81-19.29S228.41,111.49,226.93,108Z" transform="translate(-30.26 -14.58)"/><polygon class="cls-15" points="182.98 100.58 184.84 104.79 189.43 104.29 186.7 108.02 189.43 111.73 184.84 111.23 182.98 115.45 181.12 111.23 176.54 111.73 179.26 108.02 176.54 104.29 181.12 104.79 182.98 100.58"/></g><path class="cls-16" d="M162.25,46.86A32.29,32.29,0,1,1,130,14.58,32.29,32.29,0,0,1,162.25,46.86Z" transform="translate(-30.26 -14.58)"/><path class="cls-17" d="M160,35.12,136.78,23.05l0,.82a8.32,8.32,0,0,1,.87,1c1.38,1.81,1.7,4.18,1.72,6.59l.25.36A2.91,2.91,0,0,1,142,34.65a2.87,2.87,0,0,1-.52,1.62A2.69,2.69,0,0,1,140,38l-.15.29a5.53,5.53,0,0,1-.48.68,9.8,9.8,0,0,1-1,3.71A6.08,6.08,0,0,1,137.5,44a7,7,0,0,1-.73.92,8,8,0,0,1-.59.58l0,1.65.06.13a10.34,10.34,0,0,1,1.26.12,5.15,5.15,0,0,1,3.58.82,15.28,15.28,0,0,1,3.29,3A13.08,13.08,0,0,1,145.52,53a19.38,19.38,0,0,1,2.28,6.35,9.86,9.86,0,0,1,.16,2.32,1.94,1.94,0,0,0,0,.24,4,4,0,0,1-.07,1.29l.5.68-.73.06a7.24,7.24,0,0,1-2.7,3.2c-1.81,1.21-4.25,1.24-6.35,1.18s-3.87.15-5.84.17c-3,0-6.08-.55-9.13-.74a60.29,60.29,0,0,1-8.78-1l-.78.07,22.57,11.72A32.29,32.29,0,0,0,160,35.12Z" transform="translate(-30.26 -14.58)"/><path class="cls-18" d="M119.6,38.48a.86.86,0,0,0,.4-.09c0,.24,0,.45,0,.67a5.72,5.72,0,0,0,.48,3,4.4,4.4,0,0,0,.92,1.42,16.78,16.78,0,0,0,4.63,3.61,6.5,6.5,0,0,0,3.34,1h0c.17,0,.35,0,.53,0a11.32,11.32,0,0,0,6.61-2.87,6.37,6.37,0,0,0,2.61-2.79h0c.55-1,.58-2.11.72-4.14a.86.86,0,0,0,.4.09c1.33,0,2.31-3.18,2-4.54-.19-.9-.93-1.94-1.56-1.94a.68.68,0,0,0-.58.38c0-.2-.09-.4-.13-.6h.37c.71,0,.16-4-.62-4h-.22A9.21,9.21,0,0,0,130.7,21v0a1.16,1.16,0,1,0-2.31,0s0,.06,0,.09a9.25,9.25,0,0,0-8,6.77h-.28c-.78,0-1.39,4-.73,4h.45c0,.2-.09.4-.13.6a.68.68,0,0,0-.58-.38c-.63,0-1.36,1-1.56,1.94C117.29,35.3,118.28,38.48,119.6,38.48Zm12.45,4.84a8,8,0,0,0-4.22.21c-.59.41-.62-1-.09-1.63s3.93-.67,4.46-.2S132.57,43.67,132.05,43.32Zm-14-9.27c.18-.84.82-1.54,1.06-1.54,0,0,.09.06.14.14l.7,1.15.24-1.32c0-.24.1-.47.16-.7H139.5c.06.23.11.46.16.7l.24,1.32.7-1.15c.05-.08.11-.14.14-.14.24,0,.88.7,1.06,1.54a5.41,5.41,0,0,1-.94,3.53.89.89,0,0,1-.57.39.35.35,0,0,1-.17,0l-.49-.24v-.1l-.06.07-.13-.06,0,.26c-.58.7-2.24,2.54-3.94,2.45-2.09-.1-3.45-1-5.65-1s-3.81.74-5.92.55c-2.3-.21-3.67-2.57-3.67-2.57s0,.18-.07.47l-.4.19a.38.38,0,0,1-.17,0,.86.86,0,0,1-.56-.39A5.36,5.36,0,0,1,118.09,34.05Z" transform="translate(-30.26 -14.58)"/><path class="cls-18" d="M111.76,57.37h0l0-.12Z" transform="translate(-30.26 -14.58)"/><path class="cls-18" d="M129.64,65.45c8.59,0,15.89-2.36,18.49-5.64a23.5,23.5,0,0,0-.8-3.59c-2.09,3.58-9.45,6.22-18.22,6.22-7.8,0-14.49-2.09-17.35-5.07-.22.85-.43,1.68-.59,2.45C113.78,63.09,121.06,65.45,129.64,65.45Z" transform="translate(-30.26 -14.58)"/><path class="cls-18" d="M146.26,53.53Z" transform="translate(-30.26 -14.58)"/><path class="cls-18" d="M112.54,54.72s0,.07,0,.11,0-.07,0-.11Z" transform="translate(-30.26 -14.58)"/><path class="cls-18" d="M113.46,52.24h0c.06-.14.11-.28.17-.41Z" transform="translate(-30.26 -14.58)"/><path class="cls-18" d="M129.11,60.51c8.66,0,15.84-3,17.15-7a13.08,13.08,0,0,0-1-1.69,11.56,11.56,0,0,0-9.13-4.69,5.16,5.16,0,0,1-.55,1.28,21.49,21.49,0,0,0,3.12-1,12.56,12.56,0,0,1,2.83,1.07,25.53,25.53,0,0,1-8,2.25,20.22,20.22,0,0,1-4.12,2.68,20.92,20.92,0,0,1-3.69-2.57,26.45,26.45,0,0,1-8.85-2.27,12.54,12.54,0,0,1,2.92-1,23,23,0,0,0,3.95,1.07,5.43,5.43,0,0,1-.7-1.51s-7.25,0-9.4,4.69a6.1,6.1,0,0,1,1-1.53c2.56,2.8,8.07,4.74,14.45,4.74s12.15-2,14.62-4.95a10.33,10.33,0,0,1,1.47,1.65c-2.55,3.06-8.79,5.23-16.09,5.23-6.9,0-12.86-1.93-15.64-4.73-.34.77-.65,1.61-.93,2.47C114.76,58.08,121.34,60.51,129.11,60.51Z" transform="translate(-30.26 -14.58)"/><path class="cls-18" d="M148.4,62.62a2.53,2.53,0,0,0,0,.28c-3.53,2.66-10.6,4.48-18.77,4.48-8.38,0-15.63-1.92-19-4.7,0-.17.07-.36.11-.57-.2,1.06-.3,1.73-.3,1.73s3.61,6,19.48,6,18.53-6,18.53-6S148.43,63.38,148.4,62.62Z" transform="translate(-30.26 -14.58)"/><path class="cls-18" d="M148.13,59.81c.09.63.16,1.22.2,1.74C148.29,61,148.22,60.44,148.13,59.81Z" transform="translate(-30.26 -14.58)"/><path class="cls-18" d="M125.62,37.51c2.06,0,3.76-1.09,3.95-2.48h0s.05-1.09.49-1.09.42.57.45.89a1.5,1.5,0,0,0,0,.2h0c.19,1.39,1.88,2.48,3.95,2.48s4.33-2.71,4.33-4.22S136.67,32,134.48,32h-8.86c-2.2,0-4.57-.26-4.57,1.26S123.42,37.51,125.62,37.51ZM134.4,33c1.67,0,3.24-.12,3.24.51s-1.55,2.9-3.22,2.9-2.92-1.21-2.92-1.84S132.73,33,134.4,33Zm-8.83,0c1.67,0,2.9.94,2.9,1.57s-1.25,1.84-2.92,1.84-3.22-2.27-3.22-2.9S123.9,33,125.57,33Z" transform="translate(-30.26 -14.58)"/><path class="cls-19" d="M244.89,46.87A32.29,32.29,0,1,1,212.6,14.58,32.29,32.29,0,0,1,244.89,46.87Z" transform="translate(-30.26 -14.58)"/><path class="cls-20" d="M242.68,35.14,224,25.14c0,.72.59,1.87-.19,2.07a1.44,1.44,0,0,1-1.47.77,10.2,10.2,0,0,1-4.43-1,1.58,1.58,0,0,1-.82-1,8.1,8.1,0,0,0-5.26,1.54,5,5,0,0,1-2.67,1c-1.35.18-2.43,1.6-3.65,2.29a11.06,11.06,0,0,1-2.72,4.78,1.7,1.7,0,0,1-1.76.39c-.48,1-.71,2.18-1.07,3.08a2.1,2.1,0,0,1-.13.26,3,3,0,0,1,1.68,1.88h.15a1.75,1.75,0,0,1,1.67,2.19,22.67,22.67,0,0,1-.73,2.2l.22.15.77.32a10.54,10.54,0,0,1,3.87,2.5c1.94,2.09,3.24,4.92,2.39,7.82-1.33,4.56-5.64,8.81-10.44,9.56,0,0,0,0,0,0l-3.57.3,23.52,12.23a32.28,32.28,0,0,0,23.37-43.32Z" transform="translate(-30.26 -14.58)"/><path class="cls-18" d="M232.17,43.94V42.87h-.34v-2a1,1,0,0,0-1-1h-.73a2.65,2.65,0,0,0-1.38-2.32,2,2,0,0,0,.24-1.45l-.77-3.52A2,2,0,0,0,225.83,31l-.17,0-1.66-3a2.13,2.13,0,0,0,.31-.6l.12-.4a2,2,0,0,0-1.34-2.47l-3.46-1a2,2,0,0,0-2.47,1.34l0,.17h-2.9l0-.1-.18-.37a2,2,0,0,0-2.65-.95l-3.26,1.54a2,2,0,0,0-1,2.64l.07.16-2.32,2.09a2,2,0,0,0-2.57.36L200,33.18a2,2,0,0,0,.2,2.81l.1.09-1,2.37h0a2.66,2.66,0,0,0-2.66,2.66h-.73a1,1,0,0,0-1,1v2h-.49v1.06a11.3,11.3,0,1,0,9.59,0V44.16h-.34v-2a1,1,0,0,0-1-1h-.73a2.62,2.62,0,0,0-1.37-2.31l.88-2.09a2,2,0,0,0,1.87-.65l2.36-2.72a2,2,0,0,0,.19-2.33l2.2-2a2,2,0,0,0,1.93.14l3.26-1.54a2,2,0,0,0,1.06-1.24H217a2,2,0,0,0,1.35,1.4l3.46,1a2,2,0,0,0,1.08,0l1.55,2.81a2,2,0,0,0-.57,1.85l.78,3.52a1.9,1.9,0,0,0,.73,1.14,2.66,2.66,0,0,0-.62,1.69h-.72a1,1,0,0,0-1,1v2h-.48v1.07a11.3,11.3,0,1,0,9.58,0ZM197,41.87a1,1,0,1,1-1,1A1,1,0,0,1,197,41.87ZM207.9,55.45a8.72,8.72,0,1,1-8.72-8.72A8.72,8.72,0,0,1,207.9,55.45Zm-6.22-13.58a1,1,0,1,1-1,1A1,1,0,0,1,201.68,41.87Zm-1-.76h-2.78a1.39,1.39,0,0,1,.8-1.26h0c-.09.22.1.51.43.65s.68.08.77-.14L200,40A1.4,1.4,0,0,1,200.64,41.11Zm3.89-8L202.89,35a1.57,1.57,0,0,1-1,.54l.21-.5c.1-.22-.09-.51-.43-.65s-.67-.08-.77.14l-.15.36a1.42,1.42,0,0,1,.3-1.46l1.64-1.89a1.49,1.49,0,0,1,1.2-.54.58.58,0,0,0,.12.75c.25.27.59.36.77.2l.09-.09A1.49,1.49,0,0,1,204.53,33.11ZM212.3,27,210,28a1.54,1.54,0,0,1-1,.12l.11-.09c.18-.16.12-.51-.12-.78s-.58-.35-.76-.19l-.07.06a1.36,1.36,0,0,1,.86-1.29l2.26-1.07a1.3,1.3,0,0,1,1.64.29h-.23c-.24,0-.44.3-.44.66s.2.65.44.65H213A1.67,1.67,0,0,1,212.3,27Zm11-.14-.06.19a.76.76,0,0,0-.51.1.64.64,0,0,0-.37.62,1.65,1.65,0,0,1-.76-.05L219.2,27a1.53,1.53,0,0,1-.86-.6h.14c.24,0,.44-.3.44-.66s-.2-.65-.44-.65h-.1a1.36,1.36,0,0,1,1.5-.39l2.4.71A1.26,1.26,0,0,1,223.29,26.84Zm6.59,13.75a1,1,0,0,1,0,2.08,1,1,0,1,1,0-2.08Zm-1-.76h-2.79a1.41,1.41,0,0,1,.88-1.3h.11l.38-.08h0A1.4,1.4,0,0,1,228.85,39.83Zm-3.85-6a1.51,1.51,0,0,1,.11-1l.07.12c.12.21.47.24.78.07s.48-.49.36-.7l0-.09a1.35,1.35,0,0,1,1.07,1.12l.54,2.45a1.37,1.37,0,0,1-.46,1.43,2.62,2.62,0,0,0-.93.19,1.42,1.42,0,0,1-1-1.11Zm.19,6.78a1,1,0,1,1-1,1A1,1,0,0,1,225.19,40.59Zm2.19,22.3a8.72,8.72,0,1,1,8.72-8.72A8.72,8.72,0,0,1,227.38,62.89Z" transform="translate(-30.26 -14.58)"/><path class="cls-16" d="M327.52,46.86a32.29,32.29,0,1,1-32.28-32.28A32.28,32.28,0,0,1,327.52,46.86Z" transform="translate(-30.26 -14.58)"/><path class="cls-17" d="M325.31,35.11,296.5,22.72s-.06.3-.16.84a1.39,1.39,0,0,1,.52,1.34c-.35,3.12-.5,6.25-.61,9.38,0,2.24.08,4.48.16,6.72a12.27,12.27,0,0,1,.13,3.82c.17,4.51.07,9,.17,13.48.06,2.44.71,6-1.23,7.93a3.36,3.36,0,0,1-3.23.61,5.82,5.82,0,0,0-3.61,0,3.27,3.27,0,0,1-1.23.45c-.06.14-.11.22-.14.22l17,10.29a32.28,32.28,0,0,0,21-42.72Z" transform="translate(-30.26 -14.58)"/><path class="cls-18" d="M315.6,33.38a1.32,1.32,0,1,0-1.89-1.78l-15.54-1.1v-.71a.69.69,0,0,0-.51-.66V27.2a2.6,2.6,0,1,0-4.4-1.88,2.58,2.58,0,0,0,.8,1.88v1.93a.69.69,0,0,0-.51.66v.64l-16.2,1.14a1.33,1.33,0,1,0-1.93,1.77L267.3,47.81l.2.11h-.29a10.14,10.14,0,0,0,16.56,0l.21-.1-7-14.45a1.82,1.82,0,0,0,.31-.31l16.21,1.51v.71a.69.69,0,0,0,.51.66V60.23a10.12,10.12,0,0,0-6.48,4.13v2.19a.55.55,0,0,0,0,1.1h16.62a.55.55,0,0,0,.55-.55.55.55,0,0,0-.55-.55h-.07V64.36a10.15,10.15,0,0,0-6.48-4.13V35.94a.69.69,0,0,0,.51-.66v-.74L313.72,33a1,1,0,0,0,.27.3l-8.13,14.49.2.11h-.29a10.14,10.14,0,0,0,16.56,0l.21-.1ZM283.51,47.92H267.77l8.06-14.36a1.42,1.42,0,0,0,.42.07,1.15,1.15,0,0,0,.37-.06Zm22.82,0,8.06-14.37a1.27,1.27,0,0,0,.44.08,1.34,1.34,0,0,0,.35-.05l6.89,14.34Z" transform="translate(-30.26 -14.58)"/></svg>